<svg version="1.2" xmlns="http://www.w3.org/2000/svg" viewBox="0 0 357 146" width="357" height="146"><style>.a{fill:#fff}</style><path  d="m32.6 93.8l3.6 16.1 3.5-16.1h1.8l-4.5 18.9h-1.7l-4.5-18.9z"/><path  d="m43.5 93.8h1.7v18.9h-1.7z"/><path fill-rule="evenodd" d="m58 96.5q1.3 2.5 1.3 6.4 0 4.2-1.4 7-1.7 3.3-4.7 3.3-2.9 0-4.5-2.9-1.5-2.7-1.5-7 0-3.8 1.3-6.5 1.6-3.5 4.7-3.5 3.3 0 4.8 3.2zm-1.4 12q0.9-2.4 0.9-5.5 0-3.4-1.1-5.4-1.1-2-3.1-2-1.9 0-3.1 2-1.2 2-1.2 5.9 0 3.1 1 5.3 1 2.1 3.4 2.1 2.2 0 3.2-2.4z"/><path  d="m61.2 93.8h1.7v16.6h6.2v2.3h-7.9z"/><path  d="m71 93.8h8.9v2.3h-7.3v5.8h6.8v2.1h-6.8v6.4h7.4v2.3h-9z"/><path  d="m82.3 93.8h1.9l6.2 15.2v-15.2h1.6v18.9h-1.9l-6.2-15.2v15.2h-1.6z"/><path  d="m103.4 95.2q1.3 1.9 1.4 4.3h-1.6q-0.3-1.8-1.1-2.9-0.8-1.1-2.3-1.1-1.7 0-2.8 2-1.2 1.9-1.2 6 0 3.3 1 5.4 1 2 3 2 1.8 0 2.8-2.1 0.5-1.2 0.7-3h1.6q-0.2 2.9-1.4 4.9-1.4 2.5-3.9 2.5-2.1 0-3.6-2-1.9-2.7-1.9-8.1 0-4.2 1.5-6.9 1.5-2.9 4.2-2.9 2.3 0 3.6 1.9z"/><path  d="m107.3 93.8h8.9v2.3h-7.3v5.8h6.8v2.1h-6.8v6.4h7.4v2.3h-9z"/><path  d="m118.7 115.4q0.6-0.2 0.8-1.3 0.1-0.6 0.1-1.1 0-0.1 0-0.2 0 0 0-0.1h-0.9v-2.8h1.8v2.6q0 1.5-0.4 2.6-0.4 1.2-1.4 1.5z"/><path  d="m131.6 94.4q1.8 1.4 2.2 5.1h-1.7q-0.3-2-1.2-3-0.9-0.9-2.3-0.9-1.7 0-2.9 1.9-1.1 2-1.1 5.9 0 3.4 0.9 5.5 1 2.1 3.1 2.1 1.7 0 2.7-1.5 1.1-1.5 1.1-4.8h-3.8v-2.1h5.4v10.1h-1.1l-0.4-2.5q-0.8 1.5-1.5 2-1.1 1-2.7 1-2.2 0-3.7-2.2-1.7-2.7-1.7-7.5 0-4.7 1.6-7.5 1.6-2.7 4.1-2.7 1.7 0 3 1.1z"/><path fill-rule="evenodd" d="m136.9 93.8h5.6q1.4 0 2.3 0.7 1.7 1.2 1.7 4.4 0 1.7-0.4 2.8-0.5 1.1-1.3 1.7 0.7 0.5 1.1 1.2 0.3 0.7 0.4 2.4v2.5q0.1 1.1 0.2 1.6 0.1 0.9 0.5 1.1v0.5h-2.1q0-0.3-0.1-0.7 0-0.3-0.1-1.5l-0.1-3.1q0-1.8-0.9-2.5-0.4-0.3-1.4-0.3h-3.7v8.1h-1.7zm5.4 8.6q1.2 0 1.9-0.7 0.6-0.7 0.6-2.6 0-2-0.9-2.8-0.5-0.3-1.3-0.3h-4v6.4z"/><path  d="m149.5 93.8h1.7v18.9h-1.7z"/><path  d="m155 106.6q0.1 1.6 0.5 2.6 0.8 1.9 2.8 1.9 0.9 0 1.7-0.4 1.4-0.8 1.4-2.9 0-1.5-0.6-2.2-0.6-0.6-2-1.1l-1.6-0.6q-1.6-0.5-2.2-1.2-1.2-1.2-1.2-3.6 0-2.5 1.2-4.1 1.1-1.7 3.1-1.7 1.9 0 3.2 1.5 1.4 1.4 1.4 4.6h-1.6q-0.1-1.6-0.5-2.4-0.8-1.4-2.5-1.4-1.4 0-2 0.9-0.7 1-0.7 2.2 0 1.4 0.8 2 0.4 0.4 2.1 1.1l1.7 0.6q1.2 0.4 1.9 1.2 1.1 1.3 1.1 3.8 0 3.1-1.4 4.5-1.5 1.3-3.4 1.3-2.3 0-3.5-1.8-1.3-1.8-1.3-4.8z"/><path  d="m165.4 93.8h1.7v16.6h6.1v2.3h-7.8z"/><path  d="m175.1 93.8h9v2.3h-7.4v5.8h6.8v2.1h-6.8v6.4h7.5v2.3h-9.1z"/><path  d="m185.5 93.8h1.9l3.6 9.1 3.5-9.1h2l-4.7 11.3v7.6h-1.7v-7.6z"/><path  d="m202.7 93.8h1.7v18.9h-1.7z"/><path  d="m207.1 93.8h2.4l3.5 16 3.5-16h2.4v18.9h-1.6v-11.2q0-0.5 0-1.9 0.1-1.3 0.1-2.8l-3.6 15.9h-1.6l-3.6-15.9v0.6q0 0.6 0.1 2.1 0 1.4 0 2v11.2h-1.6z"/><path fill-rule="evenodd" d="m225 93.8h1.9l4.5 18.9h-1.8l-1.3-5.7h-4.8l-1.4 5.7h-1.7zm2.8 11.1l-1.9-8.3-2 8.3z"/><path  d="m241.1 94.4q1.8 1.4 2.2 5.1h-1.6q-0.3-2-1.2-3-1-0.9-2.4-0.9-1.7 0-2.8 1.9-1.2 2-1.2 5.9 0 3.4 1 5.5 0.9 2.1 3.1 2.1 1.6 0 2.7-1.5 1.1-1.5 1.1-4.8h-3.9v-2.1h5.4v10.1h-1l-0.4-2.5q-0.9 1.5-1.5 2-1.1 1-2.8 1-2.1 0-3.7-2.2-1.7-2.7-1.7-7.5 0-4.7 1.7-7.5 1.6-2.7 4.1-2.7 1.7 0 2.9 1.1z"/><path  d="m246.4 93.8h9v2.3h-7.3v5.8h6.7v2.1h-6.7v6.4h7.4v2.3h-9.1z"/><path  d="m258.8 106.6q0.1 1.6 0.5 2.6 0.8 1.9 2.8 1.9 1 0 1.7-0.4 1.4-0.8 1.4-2.9 0-1.5-0.6-2.2-0.6-0.6-1.9-1.1l-1.6-0.6q-1.6-0.5-2.3-1.2-1.1-1.2-1.1-3.6 0-2.5 1.1-4.1 1.1-1.7 3.2-1.7 1.9 0 3.2 1.5 1.3 1.4 1.3 4.6h-1.6q-0.1-1.6-0.5-2.4-0.7-1.4-2.5-1.4-1.4 0-2 0.9-0.6 1-0.6 2.2 0 1.4 0.7 2 0.5 0.4 2.2 1.1l1.7 0.6q1.2 0.4 1.8 1.2 1.2 1.3 1.2 3.8 0 3.1-1.5 4.5-1.4 1.3-3.4 1.3-2.2 0-3.5-1.8-1.2-1.8-1.2-4.8z"/><path fill-rule="evenodd" d="m274 93.8h5.3q2.2 0 3.1 2 0.5 1.2 0.5 2.7 0 1.8-0.6 2.9-0.4 0.6-1 1.1 0.9 0.6 1.4 1.3 0.8 1.2 0.8 3.4 0 1.8-0.7 3.3-1.1 2.2-3.6 2.2h-5.2zm4.7 7.9q1 0 1.6-0.4 1-0.7 1-2.6 0-1.8-1-2.4-0.6-0.4-1.7-0.4h-3v5.8zm0.6 8.7q1.5 0 2.2-1.3 0.4-0.9 0.4-2.1 0-2.1-1.2-2.8-0.7-0.4-1.7-0.4h-3.4v6.6z"/><path fill-rule="evenodd" d="m285.7 93.8h5.6q1.4 0 2.3 0.7 1.7 1.2 1.7 4.4 0 1.7-0.5 2.8-0.5 1.1-1.3 1.7 0.7 0.5 1.1 1.2 0.4 0.7 0.4 2.4l0.1 2.5q0 1.1 0.1 1.6 0.1 0.9 0.5 1.1v0.5h-2q-0.1-0.3-0.2-0.7 0-0.3 0-1.5l-0.1-3.1q-0.1-1.8-0.9-2.5-0.5-0.3-1.5-0.3h-3.7v8.1h-1.6zm5.4 8.6q1.1 0 1.8-0.7 0.7-0.7 0.7-2.6 0-2-1-2.8-0.5-0.3-1.3-0.3h-4v6.4z"/><path  d="m298.3 93.8h1.6v18.9h-1.6z"/><path  d="m302.8 93.8h9v2.3h-7.4v5.8h6.8v2.1h-6.8v6.4h7.5v2.3h-9.1z"/><path  d="m314.3 93.8h8.5v2.3h-6.8v5.8h6v2.2h-6v8.6h-1.7z"/><path  d="m12.7 130.6q0 1.6 0.5 2.6 0.8 1.9 2.8 1.9 0.9 0 1.6-0.4 1.5-0.8 1.5-2.9 0-1.5-0.6-2.2-0.7-0.6-2-1.1l-1.6-0.6q-1.6-0.5-2.2-1.2-1.2-1.2-1.2-3.6 0-2.5 1.1-4.1 1.2-1.6 3.2-1.6 1.9 0 3.2 1.4 1.3 1.4 1.3 4.6h-1.5q-0.2-1.6-0.6-2.4-0.7-1.4-2.4-1.4-1.5 0-2.1 0.9-0.6 1-0.6 2.2 0 1.4 0.7 2 0.5 0.4 2.2 1.1l1.7 0.6q1.2 0.4 1.9 1.2 1.1 1.3 1.1 3.8 0 3.1-1.5 4.5-1.4 1.3-3.3 1.3-2.3 0-3.5-1.8-1.3-1.8-1.3-4.8z"/><path  d="m32 117.8v2.3h-4.1v16.6h-1.7v-16.6h-4.2v-2.3z"/><path fill-rule="evenodd" d="m33.8 117.8h5.6q1.3 0 2.2 0.7 1.8 1.2 1.8 4.4 0 1.7-0.5 2.8-0.5 1.1-1.3 1.7 0.7 0.5 1.1 1.2 0.4 0.7 0.4 2.4l0.1 2.5q0 1.1 0.1 1.6 0.1 0.9 0.5 1.1v0.5h-2q-0.1-0.3-0.2-0.7 0-0.3 0-1.5l-0.1-3.1q-0.1-1.8-0.9-2.5-0.5-0.3-1.5-0.3h-3.7v8.1h-1.6zm5.4 8.6q1.1 0 1.8-0.7 0.7-0.7 0.7-2.6 0-2-1-2.8-0.5-0.3-1.3-0.3h-4v6.4z"/><path fill-rule="evenodd" d="m56.1 120.5q1.3 2.5 1.3 6.4 0 4.2-1.4 7-1.7 3.3-4.7 3.3-2.9 0-4.5-2.9-1.5-2.7-1.5-7 0-3.8 1.3-6.5 1.6-3.5 4.7-3.5 3.3 0 4.8 3.2zm-1.4 12q0.9-2.4 0.9-5.5 0-3.4-1.1-5.4-1.1-2-3.1-2-1.9 0-3.1 2-1.2 2-1.2 5.9 0 3.1 1 5.3 1 2.1 3.4 2.1 2.2 0 3.2-2.4z"/><path  d="m59.3 117.8h2l6.2 15.2v-15.2h1.6v18.9h-1.9l-6.3-15.2v15.2h-1.6z"/><path  d="m80 118.4q1.8 1.4 2.2 5.1h-1.7q-0.3-2-1.2-3-0.9-0.9-2.3-0.9-1.7 0-2.9 1.9-1.1 2-1.1 5.9 0 3.4 0.9 5.5 1 2.1 3.1 2.1 1.7 0 2.7-1.5 1.1-1.5 1.1-4.8h-3.8v-2.1h5.4v10.1h-1.1l-0.4-2.5q-0.8 1.5-1.5 2-1.1 1-2.7 1-2.2 0-3.7-2.2-1.7-2.7-1.7-7.5 0-4.7 1.6-7.5 1.6-2.7 4.1-2.7 1.7 0 3 1.1z"/><path  d="m89.9 117.8h1.7v16.6h6.2v2.3h-7.9z"/><path fill-rule="evenodd" d="m103.1 117.8h1.9l4.4 18.9h-1.8l-1.3-5.7h-4.8l-1.4 5.7h-1.7zm2.8 11.1l-1.9-8.3-2 8.3z"/><path  d="m110.9 117.8h2l6.2 15.2v-15.2h1.5v18.9h-1.8l-6.3-15.2v15.2h-1.6z"/><path  d="m131.6 118.4q1.8 1.4 2.2 5.1h-1.7q-0.3-2-1.2-3-0.9-0.9-2.3-0.9-1.7 0-2.9 1.9-1.1 2-1.1 5.9 0 3.4 0.9 5.5 1 2.1 3.1 2.1 1.7 0 2.7-1.5 1.1-1.5 1.1-4.8h-3.8v-2.1h5.4v10.1h-1.1l-0.4-2.5q-0.8 1.5-1.5 2-1.1 1-2.7 1-2.2 0-3.7-2.2-1.7-2.7-1.7-7.5 0-4.7 1.6-7.5 1.6-2.7 4.1-2.7 1.7 0 3 1.1z"/><path  d="m138.5 117.8v11.7q0 2 0.5 3.4 0.8 2 2.6 2 2.1 0 2.9-2.2 0.4-1.2 0.4-3.2v-11.7h1.7v10.6q0 3.5-0.6 5.4-1.2 3.4-4.3 3.4-3.1 0-4.2-3.4-0.7-1.9-0.7-5.4v-10.6z"/><path fill-rule="evenodd" d="m152.7 117.8h1.9l4.5 18.9h-1.8l-1.3-5.7h-4.9l-1.3 5.7h-1.7zm2.8 11.1l-1.9-8.3-2 8.3z"/><path  d="m168.8 118.4q1.8 1.4 2.2 5.1h-1.6q-0.3-2-1.2-3-1-0.9-2.4-0.9-1.7 0-2.8 1.9-1.2 2-1.2 5.9 0 3.4 1 5.5 0.9 2.1 3.1 2.1 1.6 0 2.7-1.5 1.1-1.5 1.1-4.8h-3.9v-2.1h5.4v10.1h-1l-0.4-2.5q-0.9 1.5-1.5 2-1.1 1-2.8 1-2.1 0-3.7-2.2-1.7-2.7-1.7-7.5 0-4.7 1.7-7.5 1.6-2.7 4.1-2.7 1.7 0 2.9 1.1z"/><path  d="m174.1 117.8h9v2.3h-7.3v5.8h6.7v2.1h-6.7v6.4h7.4v2.3h-9.1z"/><path fill-rule="evenodd" d="m192.9 117.8h1.9l4.4 18.9h-1.8l-1.3-5.7h-4.8l-1.4 5.7h-1.7zm2.8 11.1l-1.9-8.3-2 8.3z"/><path  d="m200.7 117.8h2l6.2 15.2v-15.2h1.6v18.9h-1.9l-6.3-15.2v15.2h-1.6z"/><path fill-rule="evenodd" d="m213.2 117.8h5q2.5 0 3.9 2.8 1.2 2.5 1.2 6.4 0 3-0.7 5.4-1.3 4.3-4.4 4.3h-5zm4.6 16.6q0.9 0 1.4-0.2 1-0.5 1.6-2 0.4-1.1 0.7-2.9 0.1-1.1 0.1-2 0-3.5-0.9-5.4-0.9-1.9-2.9-1.9h-2.9v14.4z"/><path  d="m231.4 130.6q0.1 1.6 0.5 2.6 0.8 1.9 2.8 1.9 1 0 1.7-0.4 1.4-0.8 1.4-2.9 0-1.5-0.6-2.2-0.6-0.6-1.9-1.1l-1.6-0.6q-1.6-0.5-2.3-1.2-1.1-1.2-1.1-3.6 0-2.5 1.1-4.1 1.1-1.6 3.2-1.6 1.9 0 3.2 1.4 1.3 1.4 1.3 4.6h-1.6q-0.1-1.6-0.5-2.4-0.7-1.4-2.5-1.4-1.4 0-2 0.9-0.6 1-0.6 2.2 0 1.4 0.7 2 0.5 0.4 2.2 1.1l1.7 0.6q1.2 0.4 1.8 1.2 1.2 1.3 1.2 3.8 0 3.1-1.5 4.5-1.4 1.3-3.4 1.3-2.2 0-3.5-1.8-1.2-1.8-1.2-4.8z"/><path fill-rule="evenodd" d="m252 120.5q1.2 2.5 1.2 6.4 0 4.2-1.4 7-1.6 3.3-4.7 3.3-2.8 0-4.5-2.9-1.4-2.7-1.4-7 0-3.8 1.2-6.5 1.6-3.5 4.7-3.5 3.3 0 4.9 3.2zm-1.5 12q1-2.4 1-5.5 0-3.4-1.1-5.4-1.2-2-3.2-2-1.9 0-3.1 2-1.2 2-1.2 5.9 0 3.1 1 5.3 1.1 2.1 3.4 2.1 2.2 0 3.2-2.4z"/><path  d="m255.2 117.8h2.3l3.6 16 3.5-16h2.4v18.9h-1.6v-11.2q0-0.5 0-1.9 0-1.3 0-2.8l-3.5 15.9h-1.6l-3.6-15.9v0.6q0 0.6 0 2.1 0 1.4 0 2v11.2h-1.5z"/><path  d="m269.7 117.8h8.9v2.3h-7.3v5.8h6.8v2.1h-6.8v6.4h7.5v2.3h-9.1z"/><path  d="m285.8 117.8h1.9l6.2 15.2v-15.2h1.6v18.9h-1.9l-6.2-15.2v15.2h-1.6z"/><path  d="m300 117.8v11.7q0 2 0.5 3.4 0.7 2 2.5 2 2.2 0 2.9-2.2 0.5-1.2 0.4-3.2v-11.7h1.7v10.6q0 3.5-0.6 5.4-1.1 3.4-4.2 3.4-3.2 0-4.3-3.4-0.6-1.9-0.6-5.4v-10.6z"/><path fill-rule="evenodd" d="m310.7 117.8h4.9q2.5 0 3.9 2.8 1.2 2.5 1.2 6.4 0 3-0.7 5.4-1.3 4.3-4.4 4.3h-4.9zm4.6 16.6q0.8 0 1.3-0.2 1-0.5 1.6-2 0.5-1.1 0.7-2.9 0.1-1.1 0.1-2 0-3.5-0.9-5.4-0.9-1.9-2.8-1.9h-2.9v14.4z"/><path  d="m323.4 117.8h1.7v18.9h-1.7z"/><path  d="m336.7 117.8v2.3h-4.1v16.6h-1.7v-16.6h-4.1v-2.3z"/><path  d="m337.3 117.8h2l3.5 9.1 3.6-9.1h1.9l-4.6 11.3v7.6h-1.7v-7.6z"/><path  d="m104.2 63.4q-1 1.1-2.8 1.1-1.9 0-2.9-1-1.1-1.1-1.1-3.4v-7.3h1.3v7.3q0 1.6 0.7 2.4 0.7 0.8 2 0.8 1.2 0 1.9-0.8 0.6-0.8 0.6-2.4v-7.3h1.3v7.3q0 2.2-1 3.3z"/><path  d="m108.6 52.8l5.1 9.3v-9.3h1.3v11.5h-1.4l-5.1-9.3v9.3h-1.3v-11.5z"/><path fill-rule="evenodd" d="m120.4 52.8q2.2 0 3.4 1.3 1.2 1.4 1.2 4.1 0 1.5-0.2 2.6-0.3 1.1-0.9 1.9-0.5 0.8-1.4 1.2-0.9 0.4-2.1 0.4h-3.3v-11.5zm0.1 10.2q0.2 0 0.5 0 0.3-0.1 0.7-0.2 0.4-0.2 0.7-0.5 0.4-0.3 0.7-0.8 0.3-0.5 0.4-1.2 0.2-0.8 0.2-1.8 0-1.1-0.1-1.9-0.2-0.8-0.6-1.4-0.4-0.6-1-0.9-0.6-0.3-1.5-0.3h-2.2v9z"/><path  d="m133.3 52.8v1.2h-5.4v3.7h5v1.3h-5v4h5.4v1.3h-6.7v-11.5z"/><path fill-rule="evenodd" d="m139.5 52.8q1.3 0 2.1 0.8 0.8 0.8 0.8 2.2 0 1-0.4 1.8-0.4 0.8-1.3 1.1 0.4 0.1 0.7 0.4 0.3 0.2 0.4 0.5 0.2 0.3 0.3 0.7 0 0.4 0.1 0.8 0 0.4 0 0.9 0 0.4 0.1 0.8 0 0.4 0.1 0.8 0.1 0.4 0.3 0.7h-1.4q-0.1-0.2-0.2-0.5 0-0.3 0-0.7 0-0.4-0.1-0.8 0-0.4 0-0.9-0.1-0.4-0.2-0.8-0.1-0.3-0.2-0.6-0.2-0.3-0.5-0.5-0.3-0.1-0.8-0.1h-3.1v4.9h-1.3v-11.5zm0.3 5.2q0.4-0.1 0.7-0.3 0.3-0.3 0.5-0.7 0.2-0.4 0.2-1 0-0.9-0.4-1.4-0.5-0.6-1.4-0.6h-3.2v4.1h2.7q0.5 0 0.9-0.1z"/><path  d="m150.6 64.3v-8.2h-2.5v-1.1q0.5 0 0.9-0.1 0.5-0.1 0.9-0.3 0.4-0.3 0.6-0.7 0.3-0.4 0.4-1.1h0.8v11.5z"/><path  d="m160 56.2q-0.6 1.2-1.1 2.6-0.5 1.3-0.8 2.7-0.4 1.4-0.4 2.8h-1.3q0.1-1.5 0.4-2.8 0.3-1.4 0.8-2.7 0.5-1.3 1.2-2.4 0.6-1.1 1.4-2.1h-5.1v-1.3h6.3v1.2q-0.8 0.9-1.4 2z"/><path fill-rule="evenodd" d="m171.4 52.8q1.4 0 2.2 0.8 0.7 0.8 0.7 2.2 0 1-0.4 1.8-0.4 0.8-1.2 1.1 0.4 0.1 0.7 0.4 0.2 0.2 0.4 0.5 0.1 0.3 0.2 0.7 0.1 0.4 0.1 0.8 0 0.4 0.1 0.9 0 0.4 0 0.8 0.1 0.4 0.2 0.8 0.1 0.4 0.3 0.7h-1.5q-0.1-0.2-0.1-0.5-0.1-0.3-0.1-0.7 0-0.4 0-0.8 0-0.4-0.1-0.9-0.1-0.4-0.1-0.8-0.1-0.3-0.3-0.6-0.2-0.3-0.5-0.5-0.2-0.1-0.7-0.1h-3.2v4.9h-1.3v-11.5zm0.3 5.2q0.4-0.1 0.7-0.3 0.3-0.3 0.5-0.7 0.2-0.4 0.2-1 0-0.9-0.4-1.4-0.4-0.6-1.3-0.6h-3.2v4.1h2.7q0.4 0 0.8-0.1z"/><path  d="m182.8 52.8v1.2h-5.4v3.7h5.1v1.3h-5.1v4h5.5v1.3h-6.8v-11.5z"/><path fill-rule="evenodd" d="m190.9 63.9q-1 0.6-2.4 0.6-1.1 0-2-0.4-0.9-0.5-1.4-1.4-0.6-0.8-0.9-1.9-0.3-1.1-0.3-2.3 0-1.2 0.3-2.3 0.3-1 0.9-1.9 0.5-0.8 1.4-1.3 0.9-0.5 2-0.5 1.2 0 2.1 0.5 0.8 0.5 1.4 1.3 0.6 0.9 0.9 1.9 0.3 1.1 0.3 2.3 0 1.3-0.4 2.5-0.4 1.2-1.1 2.1l1.3 1.2-0.7 1zm0-1.7q0.5-0.7 0.8-1.6 0.3-1 0.3-2.1 0-0.8-0.2-1.7-0.2-0.8-0.6-1.5-0.4-0.7-1.1-1.1-0.6-0.4-1.5-0.4-0.9 0-1.5 0.4-0.6 0.4-1.1 1.1-0.4 0.7-0.5 1.5-0.2 0.9-0.2 1.7 0 0.9 0.2 1.7 0.1 0.9 0.5 1.6 0.5 0.7 1.1 1.1 0.6 0.4 1.5 0.4 0.7 0 1.4-0.3l-1.1-1.1 0.7-0.9z"/><path  d="m201.5 63.4q-1 1.1-2.8 1.1-1.9 0-3-1-1-1.1-1-3.4v-7.3h1.3v7.3q0 1.6 0.7 2.4 0.7 0.8 2 0.8 1.2 0 1.9-0.8 0.6-0.8 0.6-2.4v-7.3h1.3v7.3q0 2.2-1 3.3z"/><path  d="m205.9 52.8v11.5h-1.3v-11.5z"/><path fill-rule="evenodd" d="m212.6 52.8q1.4 0 2.2 0.8 0.8 0.8 0.8 2.2 0 1-0.4 1.8-0.4 0.8-1.3 1.1 0.4 0.1 0.7 0.4 0.2 0.2 0.4 0.5 0.2 0.3 0.2 0.7 0.1 0.4 0.1 0.8 0.1 0.4 0.1 0.9 0 0.4 0 0.8 0.1 0.4 0.2 0.8 0.1 0.4 0.3 0.7h-1.4q-0.2-0.2-0.2-0.5-0.1-0.3-0.1-0.7 0-0.4 0-0.8 0-0.4-0.1-0.9 0-0.4-0.1-0.8-0.1-0.3-0.3-0.6-0.1-0.3-0.4-0.5-0.3-0.1-0.8-0.1h-3.1v4.9h-1.3v-11.5zm0.2 5.2q0.4-0.1 0.8-0.3 0.3-0.3 0.4-0.7 0.2-0.4 0.2-1 0-0.9-0.4-1.4-0.4-0.6-1.3-0.6h-3.2v4.1h2.7q0.4 0 0.8-0.1z"/><path  d="m224.1 52.8v1.2h-5.4v3.7h5v1.3h-5v4h5.4v1.3h-6.7v-11.5z"/><path  d="m230.5 54.3q-0.6-0.5-1.6-0.5-0.4 0-0.8 0.1-0.4 0.1-0.7 0.3-0.3 0.2-0.5 0.6-0.2 0.4-0.2 0.9 0 0.6 0.3 0.9 0.2 0.3 0.7 0.5 0.4 0.3 1 0.4 0.5 0.1 1.1 0.3 0.6 0.2 1.1 0.4 0.6 0.2 1 0.6 0.5 0.3 0.7 0.9 0.3 0.6 0.3 1.4 0 0.9-0.4 1.6-0.3 0.6-0.8 1.1-0.6 0.4-1.3 0.6-0.6 0.1-1.3 0.1-0.8 0-1.5-0.2-0.8-0.2-1.3-0.7-0.6-0.5-0.9-1.3-0.3-0.8-0.3-1.8h1.2q0 0.7 0.3 1.2 0.2 0.6 0.6 0.9 0.4 0.3 0.9 0.5 0.5 0.2 1 0.2 0.5 0 0.9-0.1 0.5-0.1 0.8-0.4 0.4-0.2 0.6-0.6 0.2-0.4 0.2-1 0-0.6-0.3-1-0.2-0.4-0.7-0.6-0.4-0.2-1-0.4-0.5-0.1-1.1-0.3-0.6-0.1-1.1-0.3-0.6-0.2-1-0.6-0.5-0.3-0.7-0.8-0.3-0.6-0.3-1.3 0-0.9 0.3-1.6 0.3-0.6 0.8-1 0.5-0.4 1.1-0.6 0.6-0.2 1.3-0.2 0.8 0 1.4 0.2 0.6 0.2 1.1 0.6 0.5 0.5 0.8 1.2 0.3 0.7 0.3 1.6h-1.2q-0.1-1.2-0.8-1.8z"/><path fill-rule="evenodd" d="m242.3 52.8l3.8 11.5h-1.5l-1-3.5h-4.1l-1.1 3.5h-1.3l3.8-11.5zm0.9 6.7l-1.7-5.4-1.6 5.4z"/><path  d="m252.9 54.4q-0.8-0.6-1.8-0.6-0.8 0-1.5 0.4-0.6 0.3-1 1-0.4 0.7-0.6 1.5-0.2 0.8-0.2 1.7 0 1 0.2 1.9 0.2 0.9 0.6 1.5 0.4 0.7 1 1.1 0.7 0.4 1.5 0.4 0.7 0 1.2-0.3 0.5-0.2 0.8-0.7 0.4-0.4 0.6-1 0.2-0.6 0.2-1.4h1.3q-0.2 2.2-1.2 3.4-1.1 1.2-3 1.2-1.1 0-1.9-0.4-0.9-0.5-1.4-1.3-0.6-0.8-0.9-1.9-0.3-1.1-0.3-2.3 0-1.3 0.3-2.4 0.3-1.1 0.9-1.9 0.6-0.9 1.5-1.3 0.8-0.5 1.9-0.5 0.8 0 1.5 0.2 0.7 0.3 1.2 0.7 0.5 0.5 0.9 1.2 0.3 0.7 0.4 1.6h-1.3q-0.2-1.2-0.9-1.8z"/><path  d="m262.7 54.4q-0.8-0.6-1.8-0.6-0.8 0-1.5 0.4-0.6 0.3-1 1-0.4 0.7-0.6 1.5-0.2 0.8-0.2 1.7 0 1 0.2 1.9 0.2 0.9 0.6 1.5 0.4 0.7 1 1.1 0.7 0.4 1.5 0.4 0.7 0 1.2-0.3 0.5-0.2 0.8-0.7 0.4-0.4 0.6-1 0.2-0.6 0.2-1.4h1.3q-0.2 2.2-1.2 3.4-1.1 1.2-3 1.2-1.1 0-1.9-0.4-0.9-0.5-1.4-1.3-0.6-0.8-0.9-1.9-0.3-1.1-0.3-2.3 0-1.3 0.3-2.4 0.3-1.1 0.9-1.9 0.6-0.9 1.5-1.3 0.8-0.5 1.9-0.5 0.8 0 1.5 0.2 0.7 0.3 1.2 0.7 0.5 0.5 0.9 1.2 0.3 0.7 0.4 1.6h-1.3q-0.2-1.2-0.9-1.8z"/><path fill-rule="evenodd" d="m266.4 56.2q0.3-1 0.8-1.9 0.6-0.8 1.5-1.3 0.9-0.5 2-0.5 1.2 0 2 0.5 0.9 0.5 1.5 1.3 0.6 0.9 0.9 1.9 0.3 1.1 0.3 2.3 0 1.2-0.3 2.3-0.3 1.1-0.9 1.9-0.6 0.9-1.5 1.4-0.8 0.4-2 0.4-1.1 0-2-0.4-0.9-0.5-1.5-1.4-0.5-0.8-0.8-1.9-0.3-1.1-0.3-2.3 0-1.2 0.3-2.3zm1.2 4q0.1 0.9 0.6 1.6 0.4 0.6 1 1.1 0.6 0.4 1.5 0.4 0.9 0 1.5-0.4 0.7-0.5 1.1-1.1 0.4-0.7 0.6-1.6 0.2-0.8 0.2-1.7 0-0.9-0.2-1.7-0.2-0.9-0.6-1.5-0.4-0.7-1.1-1.1-0.6-0.4-1.5-0.4-0.9 0-1.5 0.4-0.6 0.4-1 1.1-0.5 0.6-0.6 1.5-0.2 0.8-0.2 1.7 0 0.9 0.2 1.7z"/><path  d="m278.7 52.8l3.1 9.6 3.1-9.6h1.7v11.5h-1.2v-9.6l-3.1 9.6h-1.1l-3-9.6v9.6h-1.2v-11.5z"/><path fill-rule="evenodd" d="m293 52.8q1.5 0 2.2 0.8 0.8 0.9 0.8 2.6 0 1.6-0.8 2.5-0.7 0.9-2.2 0.9h-2.9v4.7h-1.3v-11.5zm-0.5 5.5q1.1 0 1.6-0.6 0.5-0.5 0.5-1.5 0-1.1-0.5-1.6-0.5-0.6-1.6-0.6h-2.5v4.3z"/><path fill-rule="evenodd" d="m300.6 52.8l3.8 11.5h-1.4l-1.1-3.5h-4.1l-1.1 3.5h-1.3l3.8-11.5zm0.9 6.7l-1.6-5.4h-0.1l-1.6 5.4z"/><path  d="m306.7 52.8l5.1 9.3v-9.3h1.3v11.5h-1.5l-5-9.3v9.3h-1.3v-11.5z"/><path  d="m319.2 64.3h-1.3v-4.7l-3.8-6.8h1.6l2.9 5.4 2.8-5.4h1.5l-3.7 6.8z"/><path  d="m325.3 52.8v11.5h-1.3v-11.5z"/><path  d="m328.8 52.8l5.1 9.3v-9.3h1.3v11.5h-1.4l-5.1-9.3v9.3h-1.3v-11.5z"/><path  d="m343.1 64.1q-0.8 0.4-1.7 0.4-1.1 0-1.9-0.4-0.9-0.5-1.5-1.3-0.6-0.8-0.9-1.9-0.3-1-0.3-2.2 0-1.2 0.3-2.4 0.3-1.1 0.8-1.9 0.6-0.9 1.5-1.4 0.8-0.5 2-0.5 0.8 0 1.5 0.2 0.7 0.2 1.2 0.7 0.6 0.5 1 1.2 0.3 0.7 0.5 1.7h-1.3q-0.1-0.7-0.4-1.1-0.2-0.5-0.6-0.8-0.4-0.3-0.9-0.5-0.5-0.1-1-0.1-0.9 0-1.5 0.4-0.6 0.4-1 1.1-0.4 0.7-0.6 1.6-0.2 0.8-0.2 1.8 0 0.9 0.2 1.7 0.2 0.8 0.6 1.5 0.5 0.6 1.1 1 0.6 0.4 1.4 0.4 0.8 0 1.3-0.3 0.6-0.3 1-0.8 0.4-0.5 0.6-1.2 0.2-0.7 0.2-1.5h-3.1v-1.3h4.3v6.1h-0.9l-0.3-1.5q-0.6 1-1.4 1.3z"/><path fill-rule="evenodd" d="m129.4 67.5q1.4 0 2.2 0.9 0.7 0.9 0.7 2.5 0 1.6-0.7 2.5-0.8 0.9-2.2 0.9h-3v4.7h-1.3v-11.5zm-0.4 5.5q1.1 0 1.6-0.6 0.5-0.5 0.5-1.5 0-1.1-0.5-1.6-0.5-0.6-1.6-0.6h-2.6v4.3z"/><path fill-rule="evenodd" d="m137 67.5l3.7 11.5h-1.4l-1-3.5h-4.1l-1.1 3.5h-1.3l3.7-11.5zm0.9 6.7l-1.6-5.4-1.7 5.4z"/><path fill-rule="evenodd" d="m146.3 67.5q1.3 0 2.1 0.8 0.8 0.8 0.8 2.2 0 1-0.4 1.8-0.4 0.8-1.3 1.1 0.4 0.1 0.7 0.4 0.3 0.2 0.4 0.5 0.2 0.3 0.3 0.7 0 0.4 0.1 0.8 0 0.4 0 0.9 0 0.4 0.1 0.8 0 0.4 0.1 0.8 0.1 0.4 0.3 0.7h-1.4q-0.1-0.2-0.2-0.5 0-0.3 0-0.7-0.1-0.4-0.1-0.8 0-0.4-0.1-0.9 0-0.4-0.1-0.8-0.1-0.3-0.2-0.6-0.2-0.3-0.5-0.5-0.3-0.1-0.8-0.1h-3.1v4.9h-1.3v-11.5zm0.3 5.2q0.4-0.1 0.7-0.3 0.3-0.3 0.5-0.7 0.1-0.3 0.1-1 0-0.9-0.4-1.4-0.4-0.5-1.3-0.6h-3.2v4.1h2.7q0.5 0 0.9-0.1z"/><path  d="m157.7 67.5v1.2h-5.4v3.7h5v1.3h-5v4h5.4v1.3h-6.7v-11.5z"/><path  d="m160.6 67.5l5.1 9.3h0.1v-9.3h1.2v11.5h-1.4l-5.1-9.3v9.3h-1.2v-11.5z"/><path  d="m168.1 68.7v-1.2h7.7v1.2h-3.2v10.3h-1.3v-10.3z"/><path fill-rule="evenodd" d="m180.4 71q0.3-1.1 0.9-2 0.6-0.8 1.4-1.3 0.9-0.5 2-0.5 1.2 0 2.1 0.5 0.8 0.5 1.4 1.3 0.6 0.9 0.9 2 0.3 1 0.3 2.2 0 1.2-0.3 2.3-0.3 1.1-0.9 1.9-0.6 0.9-1.4 1.4-0.9 0.4-2.1 0.4-1.1 0-2-0.4-0.8-0.5-1.4-1.4-0.6-0.8-0.9-1.9-0.3-1.1-0.3-2.3 0-1.2 0.3-2.2zm1.2 3.9q0.2 0.9 0.6 1.6 0.4 0.6 1 1.1 0.7 0.4 1.5 0.4 0.9 0 1.6-0.4 0.6-0.5 1-1.1 0.4-0.7 0.6-1.6 0.2-0.8 0.2-1.7 0-0.8-0.2-1.7-0.2-0.8-0.6-1.5-0.4-0.7-1-1.1-0.7-0.4-1.6-0.4-0.8 0-1.5 0.4-0.6 0.4-1 1.1-0.4 0.7-0.6 1.5-0.2 0.9-0.2 1.7 0 0.9 0.2 1.7z"/><path fill-rule="evenodd" d="m195.5 67.5q1.4 0 2.2 0.8 0.8 0.8 0.8 2.2 0 1-0.4 1.8-0.4 0.8-1.3 1.1 0.4 0.1 0.7 0.4 0.2 0.2 0.4 0.5 0.1 0.3 0.2 0.7 0.1 0.4 0.1 0.8 0.1 0.4 0.1 0.9 0 0.4 0 0.8 0.1 0.4 0.2 0.8 0.1 0.4 0.3 0.7h-1.4q-0.2-0.2-0.2-0.5-0.1-0.3-0.1-0.7 0-0.4 0-0.8 0-0.4-0.1-0.9 0-0.4-0.1-0.8-0.1-0.3-0.3-0.6-0.2-0.3-0.4-0.5-0.3-0.1-0.8-0.1h-3.1v4.9h-1.3v-11.5zm0.2 5.2q0.4-0.1 0.7-0.3 0.4-0.3 0.5-0.7 0.2-0.3 0.2-1 0-0.9-0.4-1.4-0.4-0.5-1.3-0.6h-3.2v4.1h2.7q0.4 0 0.8-0.1z"/><path fill-rule="evenodd" d="m208.1 67.5l3.8 11.5h-1.4l-1.1-3.5h-4.1l-1.1 3.5h-1.3l3.8-11.5zm0.9 6.7l-1.7-5.4-1.6 5.4z"/><path fill-rule="evenodd" d="m216.2 67.5q2.2 0 3.4 1.3 1.2 1.4 1.2 4.1 0 1.5-0.3 2.6-0.2 1.1-0.8 1.9-0.6 0.8-1.5 1.2-0.8 0.4-2 0.4h-3.4v-11.5zm0.1 10.2q0.3 0 0.6 0 0.3-0.1 0.7-0.2 0.3-0.2 0.7-0.5 0.4-0.3 0.6-0.8 0.3-0.5 0.5-1.2 0.2-0.8 0.2-1.8 0-1.1-0.2-1.9-0.1-0.8-0.5-1.4-0.4-0.6-1-0.9-0.6-0.3-1.5-0.3h-2.2v9z"/><path  d="m229.1 78.1q-1 1.1-2.8 1.1-1.9 0-2.9-1-1.1-1.1-1.1-3.4v-7.3h1.3v7.3q0 1.6 0.7 2.4 0.7 0.8 2 0.8 1.2 0 1.9-0.8 0.6-0.8 0.6-2.4v-7.3h1.3v7.3q0 2.2-1 3.3z"/><path  d="m233.5 67.5v10.2h5.1v1.3h-6.4v-11.5z"/><path  d="m237.5 68.7v-1.2h7.7v1.2h-3.2v10.3h-1.3v-10.3z"/><path  d="m255.9 78.9q-0.9 0.3-1.7 0.3-1.1 0-2-0.4-0.8-0.5-1.4-1.3-0.6-0.8-0.9-1.9-0.3-1-0.3-2.2 0-1.2 0.3-2.3 0.3-1.2 0.8-2 0.6-0.9 1.5-1.4 0.8-0.5 2-0.5 0.8 0 1.5 0.2 0.7 0.2 1.2 0.7 0.6 0.5 0.9 1.2 0.4 0.7 0.6 1.7h-1.3q-0.1-0.7-0.4-1.1-0.2-0.5-0.6-0.8-0.4-0.3-0.9-0.5-0.5-0.1-1-0.1-0.9 0-1.5 0.4-0.7 0.4-1.1 1.1-0.4 0.7-0.5 1.6-0.2 0.8-0.2 1.8 0 0.9 0.2 1.7 0.2 0.8 0.6 1.5 0.4 0.6 1.1 1 0.6 0.4 1.4 0.4 0.8 0 1.3-0.3 0.6-0.3 1-0.8 0.4-0.5 0.6-1.2 0.2-0.7 0.2-1.5h-3.1v-1.3h4.3v6.1h-0.9l-0.3-1.4q-0.6 0.9-1.4 1.3z"/><path  d="m267.1 78.1q-1 1.1-2.8 1.1-1.9 0-3-1-1-1.1-1-3.4v-7.3h1.3v7.3q0 1.6 0.7 2.4 0.7 0.8 2 0.8 1.2 0 1.9-0.8 0.6-0.8 0.6-2.4v-7.3h1.3v7.3q0 2.2-1 3.3z"/><path fill-rule="evenodd" d="m274.2 67.5l3.8 11.5h-1.4l-1.1-3.5h-4.1l-1.1 3.5h-1.3l3.8-11.5zm0.9 6.7l-1.6-5.4h-0.1l-1.6 5.4z"/><path fill-rule="evenodd" d="m283.5 67.5q1.4 0 2.2 0.8 0.8 0.8 0.8 2.2 0 1-0.4 1.8-0.4 0.8-1.3 1.1 0.4 0.1 0.7 0.4 0.2 0.2 0.4 0.5 0.1 0.3 0.2 0.7 0.1 0.4 0.1 0.8 0.1 0.4 0.1 0.9 0 0.4 0 0.8 0.1 0.4 0.2 0.8 0.1 0.4 0.3 0.7h-1.4q-0.2-0.2-0.2-0.5-0.1-0.3-0.1-0.7 0-0.4 0-0.8 0-0.4-0.1-0.9-0.1-0.4-0.1-0.8-0.1-0.3-0.3-0.6-0.2-0.3-0.5-0.5-0.2-0.1-0.7-0.1h-3.2v4.9h-1.3v-11.5zm0.3 5.2q0.4-0.1 0.7-0.3 0.3-0.3 0.5-0.7 0.2-0.3 0.2-1 0-0.9-0.4-1.4-0.4-0.5-1.3-0.6h-3.2v4.1h2.7q0.4 0 0.8-0.1z"/><path fill-rule="evenodd" d="m291.6 67.5q2.2 0 3.4 1.3 1.2 1.4 1.2 4.1 0 1.5-0.2 2.6-0.3 1.1-0.9 1.9-0.6 0.8-1.4 1.2-0.9 0.4-2.1 0.4h-3.4v-11.5zm0.2 10.2q0.2 0 0.5 0 0.3-0.1 0.7-0.2 0.4-0.2 0.7-0.5 0.4-0.3 0.7-0.8 0.2-0.5 0.4-1.2 0.2-0.8 0.2-1.8 0-1.1-0.2-1.9-0.1-0.8-0.5-1.4-0.4-0.6-1-0.9-0.6-0.3-1.5-0.3h-2.2v9z"/><path  d="m299.1 67.5v11.5h-1.2v-11.5z"/><path fill-rule="evenodd" d="m305.4 67.5l3.8 11.5h-1.5l-1-3.5h-4.1l-1.1 3.5h-1.3l3.8-11.5zm0.8 6.7l-1.6-5.4-1.6 5.4z"/><path  d="m311.5 67.5l5.1 9.3v-9.3h1.2v11.5h-1.4l-5.1-9.3v9.3h-1.2v-11.5z"/><path fill-rule="evenodd" d="m14.9 75.1q4.9-0.3 6.6-1.9 1.8-1.6 1.8-6.9v-42.4q0-5.5-2.1-7.2-1.4-1.1-6.3-1.5v-2.5h30.8q9.6 0 15.6 2 11.5 4.1 11.5 14.7 0 7.8-6.1 12.3-4.6 3.4-9.7 4.3l20.4 27.3q0.7 1.1 1.6 1.5 0.9 0.3 2.2 0.4v2.3h-20l-22.3-30h-0.1v18.8q0 5.1 1.7 6.8 1.7 1.8 6.8 2v2.4h-32.4zm37.4-33.3q4-2.5 4-11.5 0-5.6-1.5-8.8-2.7-5.5-9.7-5.5-3.9 0-5.1 1-1.2 0.9-1.2 3.1v24.4q9.5-0.2 13.5-2.7z"/><path fill-rule="evenodd" d="m121.6 17.6q1.1 0 2 0.3 0.8 0.3 1.5 0.8 0.6 0.6 0.9 1.3 0.3 0.7 0.3 1.5 0 1.3-0.6 2.2-0.6 0.9-1.9 1.4 0.6 0.2 1.1 0.5 0.4 0.4 0.7 0.8 0.2 0.5 0.4 1 0.1 0.5 0.1 1.1 0.1 0.3 0.1 0.8 0 0.4 0.1 0.9 0 0.5 0.1 0.9 0.2 0.4 0.4 0.7h-3.6q-0.3-0.6-0.3-1.6-0.1-0.9-0.2-1.8-0.2-1.1-0.8-1.6-0.6-0.5-1.9-0.5h-3.6v5.5h-3.6v-14.2zm-1.3 6.4q1.3 0 1.9-0.4 0.6-0.5 0.6-1.6 0-1-0.6-1.5-0.6-0.5-1.9-0.5h-3.9v4z"/><path  d="m141.4 17.6v2.6h-8.6v3.1h7.9v2.4h-7.9v3.5h8.8v2.6h-12.3v-14.2z"/><path  d="m146.7 28.3q0.3 0.5 0.8 0.8 0.5 0.3 1.2 0.5 0.6 0.1 1.3 0.1 0.5 0 1.1 0 0.5-0.1 1-0.3 0.5-0.2 0.8-0.5 0.3-0.4 0.3-0.9 0-0.6-0.4-1-0.4-0.3-1.1-0.6-0.7-0.2-1.6-0.4-0.8-0.2-1.7-0.4-0.9-0.2-1.8-0.5-0.9-0.3-1.6-0.7-0.6-0.5-1.1-1.2-0.4-0.7-0.4-1.6 0-1.1 0.6-1.9 0.5-0.9 1.4-1.4 0.8-0.5 1.9-0.8 1.1-0.3 2.2-0.3 1.3 0 2.4 0.3 1.2 0.2 2.1 0.8 0.9 0.6 1.5 1.4 0.5 0.9 0.5 2.1h-3.4q-0.1-0.6-0.4-1-0.2-0.4-0.6-0.7-0.5-0.2-1-0.3-0.6-0.1-1.3-0.1-0.4 0-0.8 0.1-0.5 0-0.8 0.2-0.4 0.2-0.6 0.5-0.2 0.3-0.2 0.8 0 0.4 0.2 0.7 0.1 0.2 0.7 0.5 0.5 0.2 1.5 0.4 0.9 0.2 2.4 0.6 0.5 0 1.3 0.2 0.8 0.3 1.6 0.7 0.8 0.5 1.4 1.2 0.6 0.8 0.6 2 0 1-0.5 1.8-0.4 0.9-1.3 1.5-0.8 0.6-2.1 0.9-1.2 0.4-2.9 0.4-1.3 0-2.6-0.3-1.3-0.3-2.2-0.9-1-0.7-1.6-1.6-0.5-1-0.5-2.3h3.4q0 0.7 0.3 1.2z"/><path  d="m157.5 20.2v-2.6h13.3v2.6h-4.9v11.6h-3.5v-11.6z"/><path fill-rule="evenodd" d="m181.4 17.6q1.1 0 2 0.3 0.9 0.3 1.5 0.8 0.6 0.6 1 1.3 0.3 0.7 0.3 1.5 0 1.3-0.6 2.2-0.6 0.9-2 1.4 0.7 0.2 1.1 0.5 0.5 0.4 0.7 0.8 0.3 0.5 0.4 1 0.2 0.5 0.2 1.1 0 0.3 0 0.8 0.1 0.4 0.1 0.9 0.1 0.5 0.2 0.9 0.1 0.4 0.4 0.7h-3.6q-0.3-0.6-0.4-1.6 0-0.9-0.2-1.8-0.1-1.1-0.7-1.6-0.6-0.5-2-0.5h-3.5v5.5h-3.6v-14.2zm-1.3 6.4q1.2 0 1.9-0.4 0.6-0.5 0.6-1.6 0-1-0.6-1.5-0.7-0.5-1.9-0.5h-3.9v4z"/><path  d="m192.7 17.6v14.2h-3.6v-14.2z"/><path  d="m206.3 21.4q-0.4-0.5-0.8-0.8-0.5-0.3-1.1-0.5-0.6-0.2-1.3-0.2-1.2 0-2 0.4-0.9 0.4-1.4 1.1-0.5 0.7-0.8 1.6-0.2 0.8-0.2 1.8 0 0.9 0.2 1.7 0.3 0.9 0.8 1.6 0.5 0.6 1.4 1 0.8 0.4 2 0.4 1.7 0 2.6-0.8 0.9-0.9 1.1-2.3h3.5q-0.2 1.3-0.7 2.4-0.6 1-1.5 1.8-1 0.8-2.2 1.2-1.3 0.4-2.8 0.4-1.9 0-3.3-0.6-1.5-0.6-2.6-1.6-1-1-1.5-2.3-0.6-1.4-0.6-2.9 0-1.6 0.6-3 0.5-1.4 1.5-2.4 1.1-1 2.6-1.6 1.4-0.6 3.3-0.6 1.4 0 2.6 0.4 1.1 0.3 2.1 1 0.9 0.6 1.5 1.6 0.7 0.9 0.8 2.2h-3.4q-0.1-0.6-0.4-1z"/><path  d="m211.4 20.2v-2.6h13.3v2.6h-4.8v11.6h-3.6v-11.6z"/><path  d="m238.8 17.6v2.6h-8.6v3.1h7.9v2.4h-7.9v3.5h8.7v2.6h-12.3v-14.2z"/><path fill-rule="evenodd" d="m248.4 17.6q1.5 0 2.9 0.4 1.3 0.5 2.3 1.3 1 0.9 1.6 2.2 0.5 1.4 0.5 3.1 0 1.6-0.4 2.9-0.5 1.3-1.4 2.3-0.9 0.9-2.3 1.5-1.4 0.5-3.2 0.5h-7v-14.2zm-0.3 11.6q0.8 0 1.5-0.2 0.7-0.2 1.3-0.7 0.6-0.5 0.9-1.4 0.4-0.8 0.4-2 0-1-0.3-1.9-0.2-0.9-0.8-1.5-0.5-0.6-1.4-0.9-0.9-0.4-2.2-0.4h-2.6v9z"/><path fill-rule="evenodd" d="m354.4 43h-0.2v101h-0.4v0.1h-351.2v-0.1h-0.4v-141h352v37h0.2zm-349.2-37v77.9h85.2v-77.9h3v34h257.8v-34zm345.4 81.1h-344.8v53.8h344.8zm0.6-44.1h-257.8v40.9h257.8z"/><path fill-rule="evenodd" d="m281.9 32.4c-5.8-2.1-9.6-4.9-9.7-8.3 0.1-3.5 3.9-6.3 9.7-8.3 5.9-2.1 13.9-3.3 22.8-3.3 8.9 0 16.9 1.2 22.8 3.3 5.8 2 9.6 4.8 9.7 8.3-0.1 3.4-3.9 6.2-9.7 8.3-5.9 2-13.9 3.3-22.8 3.3-8.9 0-16.9-1.3-22.8-3.3zm0.3-15.8c-5.7 2-9.1 4.8-9 7.5-0.1 2.6 3.3 5.4 9 7.4 5.7 2 13.7 3.2 22.5 3.2 8.8 0 16.7-1.2 22.5-3.2 5.7-2 9.1-4.8 9-7.4 0.1-2.7-3.3-5.5-9-7.5-5.8-2-13.7-3.2-22.5-3.2q0 0 0 0c-8.8 0-16.8 1.2-22.5 3.2z"/><path fill-rule="evenodd" d="m281.4 24.1c0.1-6.7 10.6-11.6 23.3-11.6 12.7 0 23.2 4.9 23.3 11.6-0.1 6.7-10.6 11.5-23.3 11.6-12.7-0.1-23.2-4.9-23.3-11.6zm7.4-7.5c-4.1 2-6.5 4.7-6.5 7.5 0 2.8 2.4 5.4 6.5 7.4 4 2 9.7 3.2 15.9 3.2 6.2 0 11.9-1.2 15.9-3.2 4.1-2 6.5-4.6 6.5-7.4 0-2.8-2.4-5.5-6.5-7.5-4-2-9.7-3.2-15.9-3.2-6.2 0-11.9 1.2-15.9 3.2z"/><path  d="m318.6 24.1c0 6.4-6.2 11.6-13.9 11.6-7.7 0-13.9-5.2-13.9-11.6 0-6.4 6.2-11.6 13.9-11.6 7.7 0 13.9 5.2 13.9 11.6z"/><path  d="m315.8 24.1c0 6.1-5 11-11.1 11-6.1 0-11.1-4.9-11.1-11 0-6.1 5-11.1 11.1-11.1 6.1 0 11.1 5 11.1 11.1z"/><path fill-rule="evenodd" class="a" d="m293.1 24.1c0-6.4 5.2-11.5 11.6-11.5 6.4 0 11.6 5.1 11.6 11.5 0 6.3-5.2 11.5-11.6 11.5-6.4 0-11.6-5.2-11.6-11.5zm1 0c0 5.8 4.7 10.6 10.6 10.6 5.9 0 10.6-4.8 10.6-10.6 0-5.9-4.7-10.6-10.6-10.6-5.9 0-10.6 4.7-10.6 10.6z"/><path fill-rule="evenodd" class="a" d="m300.8 24.1c0-2.3 1.7-4.2 3.9-4.2 2.2 0 3.9 1.9 3.9 4.2 0 2.2-1.7 4.1-3.9 4.1-2.2 0-3.9-1.9-4-4.1zm0.8 0c0 1.9 1.4 3.4 3.2 3.4 1.8 0 3.2-1.5 3.2-3.4 0-1.9-1.4-3.5-3.2-3.5-1.8 0-3.2 1.6-3.2 3.5z"/><path fill-rule="evenodd" class="a" d="m296 19.8c0-2.7 2.1-4.9 4.7-4.9 2.5 0 4.6 2.2 4.6 4.9 0 2.7-2.1 4.9-4.6 4.9-2.6 0-4.7-2.2-4.7-4.9zm0.9 0c0 2.2 1.7 4 3.8 4 2 0 3.7-1.8 3.7-4 0-2.2-1.7-4-3.7-4-2.1 0-3.8 1.8-3.8 4z"/><path fill-rule="evenodd" class="a" d="m305.4 19.8c0-2.7 2.1-4.9 4.7-4.9 2.5 0 4.6 2.2 4.6 4.9 0 2.7-2.1 4.9-4.6 4.9-2.6 0-4.7-2.2-4.7-4.9zm0.9 0c0 2.2 1.7 4 3.8 4 2 0 3.7-1.8 3.7-4 0-2.2-1.7-4-3.7-4-2.1 0-3.8 1.8-3.8 4z"/><path fill-rule="evenodd" class="a" d="m296 29.3c0-2.7 2.1-4.9 4.7-4.9 2.5 0 4.6 2.2 4.6 4.9 0 2.7-2.1 4.9-4.6 4.9-2.6 0-4.7-2.2-4.7-4.9zm0.9 0c0 2.2 1.7 4 3.8 4 2 0 3.7-1.8 3.7-4 0-2.3-1.7-4-3.7-4-2.1 0-3.8 1.7-3.8 4z"/><path fill-rule="evenodd" class="a" d="m305.4 29.3c0-2.7 2.1-4.9 4.7-4.9 2.5 0 4.6 2.2 4.6 4.9 0 2.7-2.1 4.9-4.6 4.9-2.6 0-4.7-2.2-4.7-4.9zm0.9 0c0 2.2 1.7 4 3.8 4 2 0 3.7-1.8 3.7-4 0-2.3-1.7-4-3.7-4-2.1 0-3.8 1.7-3.8 4z"/></svg>